<mxfile host="app.diagrams.net" modified="2021-10-25T14:29:58.197Z" agent="5.0 (Windows NT 10.0; Win64; x64) AppleWebKit/537.36 (KHTML, like Gecko) Chrome/94.0.4606.81 Safari/537.36" etag="YL1hd1aAY_HGKNIcE7Ic" version="15.5.9" type="github">
  <diagram id="pCYF1ZupuWEemld1GSwe" name="Page-1">
    <mxGraphModel dx="976" dy="587" grid="1" gridSize="10" guides="1" tooltips="1" connect="1" arrows="1" fold="1" page="1" pageScale="1" pageWidth="850" pageHeight="1100" math="0" shadow="0">
      <root>
        <mxCell id="0" />
        <mxCell id="1" parent="0" />
        <mxCell id="EBzi6UNPib7ds7rI71un-5" style="edgeStyle=orthogonalEdgeStyle;rounded=0;orthogonalLoop=1;jettySize=auto;html=1;exitX=1;exitY=0.5;exitDx=0;exitDy=0;entryX=0;entryY=0.5;entryDx=0;entryDy=0;" edge="1" parent="1" source="EBzi6UNPib7ds7rI71un-1" target="EBzi6UNPib7ds7rI71un-4">
          <mxGeometry relative="1" as="geometry" />
        </mxCell>
        <mxCell id="EBzi6UNPib7ds7rI71un-1" value="TCP Port 80" style="rounded=0;whiteSpace=wrap;html=1;" vertex="1" parent="1">
          <mxGeometry x="70" y="120" width="80" height="40" as="geometry" />
        </mxCell>
        <mxCell id="EBzi6UNPib7ds7rI71un-7" style="edgeStyle=orthogonalEdgeStyle;rounded=0;orthogonalLoop=1;jettySize=auto;html=1;exitX=1;exitY=0.5;exitDx=0;exitDy=0;entryX=0;entryY=0.5;entryDx=0;entryDy=0;" edge="1" parent="1" source="EBzi6UNPib7ds7rI71un-2" target="EBzi6UNPib7ds7rI71un-4">
          <mxGeometry relative="1" as="geometry" />
        </mxCell>
        <mxCell id="EBzi6UNPib7ds7rI71un-2" value="TCP Port 443" style="rounded=0;whiteSpace=wrap;html=1;" vertex="1" parent="1">
          <mxGeometry x="70" y="200" width="80" height="40" as="geometry" />
        </mxCell>
        <mxCell id="EBzi6UNPib7ds7rI71un-10" style="edgeStyle=orthogonalEdgeStyle;rounded=0;orthogonalLoop=1;jettySize=auto;html=1;exitX=1;exitY=0.5;exitDx=0;exitDy=0;entryX=0;entryY=0.5;entryDx=0;entryDy=0;" edge="1" parent="1" source="EBzi6UNPib7ds7rI71un-4" target="EBzi6UNPib7ds7rI71un-8">
          <mxGeometry relative="1" as="geometry" />
        </mxCell>
        <mxCell id="EBzi6UNPib7ds7rI71un-11" style="edgeStyle=orthogonalEdgeStyle;rounded=0;orthogonalLoop=1;jettySize=auto;html=1;exitX=1;exitY=0.5;exitDx=0;exitDy=0;entryX=0;entryY=0.5;entryDx=0;entryDy=0;" edge="1" parent="1" source="EBzi6UNPib7ds7rI71un-4" target="EBzi6UNPib7ds7rI71un-9">
          <mxGeometry relative="1" as="geometry" />
        </mxCell>
        <mxCell id="EBzi6UNPib7ds7rI71un-4" value="Public NLB" style="whiteSpace=wrap;html=1;aspect=fixed;" vertex="1" parent="1">
          <mxGeometry x="190" y="140" width="80" height="80" as="geometry" />
        </mxCell>
        <mxCell id="EBzi6UNPib7ds7rI71un-21" style="edgeStyle=orthogonalEdgeStyle;rounded=0;orthogonalLoop=1;jettySize=auto;html=1;exitX=1;exitY=0.5;exitDx=0;exitDy=0;" edge="1" parent="1" source="EBzi6UNPib7ds7rI71un-8" target="EBzi6UNPib7ds7rI71un-13">
          <mxGeometry relative="1" as="geometry" />
        </mxCell>
        <mxCell id="EBzi6UNPib7ds7rI71un-8" value="Target Group Port 80" style="rounded=0;whiteSpace=wrap;html=1;" vertex="1" parent="1">
          <mxGeometry x="310" y="120" width="80" height="40" as="geometry" />
        </mxCell>
        <mxCell id="EBzi6UNPib7ds7rI71un-22" style="edgeStyle=orthogonalEdgeStyle;rounded=0;orthogonalLoop=1;jettySize=auto;html=1;exitX=1;exitY=0.5;exitDx=0;exitDy=0;" edge="1" parent="1" source="EBzi6UNPib7ds7rI71un-9" target="EBzi6UNPib7ds7rI71un-15">
          <mxGeometry relative="1" as="geometry" />
        </mxCell>
        <mxCell id="EBzi6UNPib7ds7rI71un-9" value="Target Group Port 443" style="rounded=0;whiteSpace=wrap;html=1;" vertex="1" parent="1">
          <mxGeometry x="310" y="200" width="80" height="40" as="geometry" />
        </mxCell>
        <mxCell id="EBzi6UNPib7ds7rI71un-12" style="edgeStyle=orthogonalEdgeStyle;rounded=0;orthogonalLoop=1;jettySize=auto;html=1;exitX=1;exitY=0.5;exitDx=0;exitDy=0;entryX=0;entryY=0.5;entryDx=0;entryDy=0;" edge="1" source="EBzi6UNPib7ds7rI71un-13" target="EBzi6UNPib7ds7rI71un-18" parent="1">
          <mxGeometry relative="1" as="geometry" />
        </mxCell>
        <mxCell id="EBzi6UNPib7ds7rI71un-13" value="HTTP Traffic Port 80" style="rounded=0;whiteSpace=wrap;html=1;" vertex="1" parent="1">
          <mxGeometry x="480" y="120" width="80" height="40" as="geometry" />
        </mxCell>
        <mxCell id="EBzi6UNPib7ds7rI71un-14" style="edgeStyle=orthogonalEdgeStyle;rounded=0;orthogonalLoop=1;jettySize=auto;html=1;exitX=1;exitY=0.5;exitDx=0;exitDy=0;entryX=0;entryY=0.5;entryDx=0;entryDy=0;" edge="1" source="EBzi6UNPib7ds7rI71un-15" target="EBzi6UNPib7ds7rI71un-18" parent="1">
          <mxGeometry relative="1" as="geometry" />
        </mxCell>
        <mxCell id="EBzi6UNPib7ds7rI71un-15" value="HTTPS Traffic 443" style="rounded=0;whiteSpace=wrap;html=1;" vertex="1" parent="1">
          <mxGeometry x="480" y="200" width="80" height="40" as="geometry" />
        </mxCell>
        <mxCell id="EBzi6UNPib7ds7rI71un-16" style="edgeStyle=orthogonalEdgeStyle;rounded=0;orthogonalLoop=1;jettySize=auto;html=1;exitX=1;exitY=0.5;exitDx=0;exitDy=0;entryX=0;entryY=0.5;entryDx=0;entryDy=0;" edge="1" source="EBzi6UNPib7ds7rI71un-18" target="EBzi6UNPib7ds7rI71un-19" parent="1">
          <mxGeometry relative="1" as="geometry" />
        </mxCell>
        <mxCell id="EBzi6UNPib7ds7rI71un-17" style="edgeStyle=orthogonalEdgeStyle;rounded=0;orthogonalLoop=1;jettySize=auto;html=1;exitX=1;exitY=0.5;exitDx=0;exitDy=0;entryX=0;entryY=0.5;entryDx=0;entryDy=0;" edge="1" source="EBzi6UNPib7ds7rI71un-18" target="EBzi6UNPib7ds7rI71un-20" parent="1">
          <mxGeometry relative="1" as="geometry" />
        </mxCell>
        <mxCell id="EBzi6UNPib7ds7rI71un-18" value="Private ALB" style="whiteSpace=wrap;html=1;aspect=fixed;" vertex="1" parent="1">
          <mxGeometry x="600" y="140" width="80" height="80" as="geometry" />
        </mxCell>
        <mxCell id="EBzi6UNPib7ds7rI71un-26" style="edgeStyle=orthogonalEdgeStyle;rounded=0;orthogonalLoop=1;jettySize=auto;html=1;exitX=1;exitY=0.5;exitDx=0;exitDy=0;entryX=0;entryY=0.5;entryDx=0;entryDy=0;" edge="1" parent="1" source="EBzi6UNPib7ds7rI71un-19" target="EBzi6UNPib7ds7rI71un-25">
          <mxGeometry relative="1" as="geometry">
            <Array as="points">
              <mxPoint x="890" y="140" />
              <mxPoint x="890" y="180" />
            </Array>
          </mxGeometry>
        </mxCell>
        <mxCell id="EBzi6UNPib7ds7rI71un-19" value="Target Group Port 80" style="rounded=0;whiteSpace=wrap;html=1;" vertex="1" parent="1">
          <mxGeometry x="720" y="120" width="80" height="40" as="geometry" />
        </mxCell>
        <mxCell id="EBzi6UNPib7ds7rI71un-28" style="edgeStyle=orthogonalEdgeStyle;rounded=0;orthogonalLoop=1;jettySize=auto;html=1;exitX=1;exitY=0.5;exitDx=0;exitDy=0;entryX=0;entryY=0.5;entryDx=0;entryDy=0;" edge="1" parent="1" source="EBzi6UNPib7ds7rI71un-20" target="EBzi6UNPib7ds7rI71un-25">
          <mxGeometry relative="1" as="geometry">
            <Array as="points">
              <mxPoint x="890" y="220" />
              <mxPoint x="890" y="180" />
            </Array>
          </mxGeometry>
        </mxCell>
        <mxCell id="EBzi6UNPib7ds7rI71un-20" value="Target Port 443" style="rounded=0;whiteSpace=wrap;html=1;" vertex="1" parent="1">
          <mxGeometry x="720" y="200" width="80" height="40" as="geometry" />
        </mxCell>
        <mxCell id="EBzi6UNPib7ds7rI71un-24" value="&lt;b&gt;443:443&lt;/b&gt;" style="text;html=1;align=center;verticalAlign=middle;resizable=0;points=[];autosize=1;strokeColor=none;fillColor=none;labelBackgroundColor=#B3FF66;" vertex="1" parent="1">
          <mxGeometry x="395" y="195" width="60" height="20" as="geometry" />
        </mxCell>
        <mxCell id="EBzi6UNPib7ds7rI71un-25" value="T-system LB" style="rounded=0;whiteSpace=wrap;html=1;labelBackgroundColor=none;" vertex="1" parent="1">
          <mxGeometry x="940" y="150" width="120" height="60" as="geometry" />
        </mxCell>
        <mxCell id="EBzi6UNPib7ds7rI71un-29" value="&lt;b&gt;80:443&lt;/b&gt;" style="text;html=1;align=center;verticalAlign=middle;resizable=0;points=[];autosize=1;strokeColor=none;fillColor=none;labelBackgroundColor=#B3FF66;" vertex="1" parent="1">
          <mxGeometry x="825" y="120" width="50" height="20" as="geometry" />
        </mxCell>
        <mxCell id="EBzi6UNPib7ds7rI71un-33" value="&lt;b&gt;443:443&lt;/b&gt;" style="text;html=1;align=center;verticalAlign=middle;resizable=0;points=[];autosize=1;strokeColor=none;fillColor=none;labelBackgroundColor=#B3FF66;" vertex="1" parent="1">
          <mxGeometry x="820" y="195" width="60" height="20" as="geometry" />
        </mxCell>
        <mxCell id="EBzi6UNPib7ds7rI71un-34" value="&lt;b&gt;80:80&lt;/b&gt;" style="text;html=1;align=center;verticalAlign=middle;resizable=0;points=[];autosize=1;strokeColor=none;fillColor=none;labelBackgroundColor=#B3FF66;" vertex="1" parent="1">
          <mxGeometry x="405" y="110" width="50" height="20" as="geometry" />
        </mxCell>
        <mxCell id="EBzi6UNPib7ds7rI71un-36" value="" style="endArrow=none;dashed=1;html=1;dashPattern=1 3;strokeWidth=2;rounded=0;" edge="1" parent="1">
          <mxGeometry width="50" height="50" relative="1" as="geometry">
            <mxPoint x="580" y="320" as="sourcePoint" />
            <mxPoint x="580" y="40" as="targetPoint" />
            <Array as="points" />
          </mxGeometry>
        </mxCell>
        <mxCell id="EBzi6UNPib7ds7rI71un-37" value="ALB SG" style="text;html=1;strokeColor=none;fillColor=none;align=center;verticalAlign=middle;whiteSpace=wrap;rounded=0;labelBackgroundColor=#B3FF66;" vertex="1" parent="1">
          <mxGeometry x="550" y="330" width="60" height="30" as="geometry" />
        </mxCell>
      </root>
    </mxGraphModel>
  </diagram>
</mxfile>
